<?xml version='1.0' encoding='utf-8'?>
<svg xmlns="http://www.w3.org/2000/svg" viewBox="0 0 8.0692 8.2705"><g transform="matrix(0 -1 1 0 0 8.2705)"><g id="field">
        <defs>
            <filter id="dark">
                <feComponentTransfer>
                    <feFuncR type="linear" slope="0.5" />
                    <feFuncG type="linear" slope="0.5" />
                    <feFuncB type="linear" slope="0.5" />
                </feComponentTransfer>
            </filter>
            <g id="blueRampTrench">
                <rect height="0.3055620000000001" width="1.193852" x="-4.2426200000000005" y="2.450338" fill="currentColor" filter="url(#dark)" />
                <rect x="-4.208718" y="0.5940749999999999" width="0.563024" height="1.856263" fill="currentColor" />
                <rect x="-3.645694" y="0.5940749999999999" width="0.563024" height="1.856263" fill="currentColor" />
                <line x1="-3.645694" y1="0.5940749999999999" x2="-3.645694" y2="2.450338" stroke="black" stroke-width="0.01" />
                <line x1="-3.645694" y1="2.7559" x2="-3.645694" y2="4.0346" stroke="currentColor" stroke-width="0.1524" />
            </g>
            <g id="blueSide">
                <g transform="translate(7.3561000000000005 4.0600000000000005)">
                    </g>
                <line x1="4.003326" x2="4.003326" y1="0" y2="8.0692" stroke="currentColor" stroke-width="0.0508" />
                <g>
                    <rect x="0" y="1.5" width="0.709" height="0.0762" fill="currentColor" />
                    <rect x="0" y="2.645" width="0.709" height="0.0762" fill="currentColor" />
                    <rect x="0.69" y="1.5" width="0.0762" height="1.218" fill="currentColor" />
                    <g transform="translate(0 5.507831)">
                        </g>
                </g>
                <g transform="translate(8.2705 4.0346)">
                    <use href="#blueRampTrench" />
                    <g transform="scale(1 -1)">
                        <use href="#blueRampTrench" />
                    </g>
                    <rect x="-4.24215" y="-0.5969" width="1.1945589999999995" height="1.1938" fill="currentColor" filter="url(#dark)" />
                    <polygon points="-3.033074,0 -3.340112,-0.527908 -3.949688,-0.527908 -4.254476,0 -3.949688,0.527908 -3.340112,0.527908" stroke="gray" fill="transparent" stroke-width="0.0254" />
                    <circle r="0.2" stroke="gray" stroke-width="0.02" fill="transparent" cx="-3.645694" cy="0" />
                    <circle r="0.1" stroke="gray" stroke-width="0.02" fill="transparent" cx="-3.645694" cy="0" />
                    <rect x="-8.271493" y="-0.784225" width="1.1455549999999999" height="0.9905999999999999" fill="black" />
                    <line x1="-7.208488" y1="-0.885825" x2="-7.208488" y2="0.307975" stroke="currentColor" stroke-width="0.042164" />
                    <rect x="-7.252938" y="0.12065000000000001" height="0.0381" width="0.0889" fill="currentColor" />
                    <rect x="-7.252938" y="-0.7366" height="0.0381" width="0.0889" fill="currentColor" />
                </g>
                <line x1="0" y1="0.259556" x2="-0.2" y2="0.259556" stroke="white" stroke-width="0.0254" />
                <line x1="0" y1="1.072356" x2="-0.2" y2="1.072356" stroke="white" stroke-width="0.0254" />
                <g transform="translate(-0.15239999999999998 0.285)">
                    </g>
            </g>
        </defs>
        <g id="tape">
            <line id="centerline" x1="8.2705" x2="8.2705" y1="0" y2="8.0692" stroke="white" stroke-width="0.0508" />
            <line id="midline" x1="0" x2="16.541" y1="4.0346" y2="4.0346" stroke="black" stroke-width="0.1016" />
        </g>
        <use x="0" y="0" width="16.541" height="8.0692" href="#blueSide" color="#1c1c99ff" />
        <g id="redSide" transform="translate(16.541 8.0692) rotate(180)">
            <use x="0" y="0" width="16.541" height="8.0692" href="#blueSide" color="#9e2323ff" />
        </g>
        <rect id="wall" x="-0.0254" y="-0.0254" width="16.5918" height="8.120000000000001" stroke="white" stroke-width="0.0508" fill="transparent" />

    </g>
</g></svg>
